<svg version="1.2" xmlns="http://www.w3.org/2000/svg" viewBox="0 0 2556 2711" width="2556" height="2711">
	<defs>
		<clipPath clipPathUnits="userSpaceOnUse" id="cp1">
			<path d="m0 0h2556v2711h-2556z"/>
		</clipPath>
	</defs>
	<style>
		tspan { white-space:pre } 
		.s0 { opacity: .98;fill: #121211 } 
		.s1 { opacity: .96;fill: #121211 } 
		.s2 { opacity: .97;fill: #121211 } 
		.s3 { opacity: 1;fill: #121211 } 
		.s4 { opacity: .98;fill: #d5291a } 
		.s5 { opacity: .98;fill: #ff2f17 } 
		.s6 { opacity: .97;fill: #171718 } 
		.s7 { opacity: .97;fill: #ff2f17 } 
		.s8 { opacity: .96;fill: #171718 } 
		.s9 { opacity: .92;fill: #121211 } 
		.s10 { opacity: .91;fill: #121211 } 
		.s11 { opacity: .94;fill: #121211 } 
		.s12 { opacity: .89;fill: #121211 } 
		.s13 { opacity: .95;fill: #121211 } 
		.s14 { opacity: .4;fill: #121211 } 
		.s15 { opacity: .44;fill: #121211 } 
		.s16 { opacity: .11;fill: #bc4351 } 
		.s17 { opacity: .18;fill: #ff413c } 
		.s18 { opacity: .4;fill: #211113 } 
		.s19 { opacity: .12;fill: #ff413e } 
		.s20 { opacity: .08;fill: #ff4039 } 
		.s21 { opacity: .08;fill: #ff403a } 
		.s22 { opacity: .09;fill: #eb7385 } 
		.s23 { opacity: .07;fill: #ff939c } 
		.s24 { opacity: .56;fill: #d5291a } 
		.t25 { font-size: 280px;fill: #fd2d17;font-weight: bold;font-family: "Toyota Type" } 
		.s26 { fill: #fd2d17 } 
	</style>
	<g id="Page 1" clip-path="url(#cp1)">
		<path id="Path 1" fill-rule="evenodd" class="s0" d="m1233.91 297.12h2.5c2.31 0.46 2.31 4.62 12.31 2.5 1.98-0.42 0.7-2.1 2.66-2.5h14.96c1.99 0.4 0.7 2.1 2.67 2.5 9.49 1.92 10.37-2.12 12.3-2.5h2.5c0.67 0.62-0.13 2.08 0.55 2.72 0.72 0.68 16.66 5.38 18.72 6.88 7.38 5.42 8.4 3.66 14.95 9.84 2.79 2.64 22.54 21.34 23.95 41.56 2.33 33.38-4.75 38.18-6.36 42.24-0.94 2.36-7.64 19.22-19.75 24.84-15.32 7.1 4.8 4.84 5.37 4.78 8.99-1.02 112.93 7.14 124.55 9.3 1.6 0.3 12.06 2.24 20.17 2.86 96.46 7.42 279.81 63.4 322.22 87.26 8.32 4.68 10.45-0.14 106.54 53.7 37.05 20.78 36.18 22.42 39.75 23.34 5.41 1.42 8.39 6.36 10.98 7.7 22.42 11.5 20.53 14 22.45 14.98 3.36 1.72 14.17 7.24 38.66 26.8 53.26 42.56 51.46 44.64 56.3 48.06 12.56 8.82 58.48 56.49 63.38 61.59 16.08 16.67 14.44 17.91 30.34 34.54 15.1 15.81 39.28 52.26 44.5 57.74 1.62 1.7 30.06 43.79 34.16 51.19 10.48 18.91 10.82 18.68 11.64 20.38 1 2.1 8.34 17.58 14.22 25.39 2.2 2.93 24.92 50.11 43.16 96.87 18.44 47.32 15.08 48.66 17.8 52.12 5.68 7.23 0.48 9.37 5 14.96 4.94 6.12 1.34 7.28 3.16 12.44 3.04 8.67 0.8 9.18 4.86 17.42 4.84 9.86 3.68 25.87 6.96 30.02 4.64 5.87 2.94 17.57 2.94 17.66 0.42 4.04 1.88 3.52 2.22 7.53 1.2 13.98-1.46 13.61-2.42 27.64-0.02 0.4-12.82 29.2-15.82 32.22-13.74 13.8-19.84 17.37-21.82 18.53-14.38 8.43-14.62 7.59-15.8 8.4-8.56 5.87-9.8 2.12-19.6 5.75-1.98 0.73-2.02 0.65-1861.05 0.65-123.92 0-124.65 1.55-151.89-8.97-8.39-3.25-7.08-5.25-15.35-9.15-1.94-0.91-16.7-15.65-17.55-17.5-5.62-12.25-7.05-11.43-7.4-12.54-7.28-23.32-8.18-22.86-8.2-24.96-0.14-25.79-0.81-25.82 3.99-44.68 11.87-46.7 11.72-46.6 27.42-92.29 20.4-59.36 25.03-64.29 30.69-75.62 9.73-19.49 8.34-19.95 9.27-21.58 10.11-17.69 9.03-18.25 10.12-19.63 8.05-10.17 8.47-17.98 17.25-30.24 12.74-17.79 9.43-19.7 22.43-37.42 10.44-14.25 12.94-19.7 14.96-22.46 14.3-19.55 14.84-19.13 15.88-20.96 7.43-13.08 10.44-10.85 14.98-19.89 5.63-11.23 14.94-17.51 21.54-26.48 7.93-10.78 10.9-8.31 16.69-20.45 2.92-6.1 3.81-5.33 60.76-61.53 36.84-36.35 53.93-46.47 56.18-48.63 19-18.3 20.59-16.04 22.08-17.74 8.87-10.12 61.7-44.02 62.41-44.88 4.94-6.06 7.66-2.18 12.46-7.54 4.66-5.2 18.05-11.3 21.14-13.54 11.77-8.48 124.1-69.18 191.28-91.6 6.96-2.34 5.95-3.92 12.83-6.46 7.63-2.82 8.13-0.64 15.38-4.14 11-5.3 12-2.1 21.66-6.78 10.8-5.2 11.3-3.34 22.71-7.18 13.65-4.58 13.89-3.08 27.44-7.54 39.55-13 112.57-25.36 117.39-26.74 13.36-3.86 13.35-2.56 27.38-3.42 0.71-0.04 6.11-2 7.5-2.12 30.17-2.56 29.81-4.9 32.43-5.02 52.99-2.66 52.79-4.78 57.39-4.94 25.38-0.96 25.33 0.88 27.53 0.68 7.46-0.66-17.36-11.66-20.12-17.36-2.73-5.66-22.09-28.16-14.13-59.72 7.96-31.62 17.16-32.22 27.46-41.92 11.57-10.88 28.04-12.26 28.81-13.76 0.5-0.96-0.07-2.24 0.42-3.2l162.17 179.6c-30.03-0.7-29.99-0.38-32.5-1.08-13.34-3.8-79.47-1.02-94.92-1.92-5.53-0.32-1.95-33.4-3.05-35.34-7.27-12.8-6.15 32.36-6.15 32.36-1.4 6.32-44.3 1.12-58.19 4.08-17.31 3.7-33.83 0.22-42.4 2.54-23.02 6.18-23.63 1.8-37.45 4.94-14.58 3.3-14.79 0.42-22.44 2.5-2.72 0.74-16.22 4.4-34.6 6.38-21.19 2.28-20.63 4.78-22.46 4.94-34.07 3.12-127.28 30.48-129.49 32.24-6.2 4.94-18.99 4.7-22.45 7.46-6.2 4.98-18.79 4.64-22.44 7.5-6 4.72-36.57 12.42-39.9 14.98-3.02 2.34-34.34 14.5-34.93 14.96-5.18 4.02-12.19 4.74-15.56 6.66-15.09 8.54-15.5 7.5-16.48 8.62-0.03 0.04-88.16 44.06-135.84 78.4-46.59 33.56-45.52 34.96-49.88 37.36-2.06 1.12-44.08 32.6-69.78 60.26-13.65 14.69-16.83 14.35-24.21 23.13-22.17 26.4-25.7 22.99-34.31 35.28-7.12 10.16-28.15 33.64-46.56 58.75-29.33 40-27.37 41.3-30.13 44.6-24.85 29.72-79.97 142.51-83.27 165.47-0.76 5.29-3.05 4.23-4.94 10.04-9.37 28.78-9.39 28.66-10.03 34.84-0.01 0.06-13.17 32.43-14.97 57.36-0.32 4.51-8.41 11.5-2.2 24.44 7.82 16.33 6.27 17.76 21.04 28.48 11.13 8.07 35.59 6.05 37.8 6.05q972.91 0 1945.81 0c4.06-0.01 31.18-0.09 41.24-29.53 8.74-25.55-15.9-87.83-28.08-132.08-2.64-9.6-4.8-8.5-5.82-12.14-10.36-37.69-18.84-45.76-21.06-52.75-6.06-19.02-8.44-17.93-8.9-19.59-2.3-8.29-5.28-6.77-7.5-14.96-4.14-15.23-52.68-93.44-54.34-95.2-3.86-4.15-2.38-4.95-5.84-9.26-14.64-18.19-14.02-18.39-27.82-37.21-6.9-9.4-8.1-8.19-14.94-17.48-13.42-18.22-14.66-17.16-15.78-18.77-14.94-21.68-89.68-90.31-93.8-93.11-1.32-0.9-10.8-7.33-16.12-11.74-5.93-4.94-55.31-45.94-77.66-57.26-4.46-2.26-10.22-7.96-10.88-8.3-26-13.26-23.94-16.54-49.88-29.9-36.56-18.82-36.28-19.2-39.5-20.74-100.33-48.02-170.83-66.6-174.15-68.34-10.39-5.4-22.19-5.64-25.34-6.62-29.16-9.08-29.73-7.02-32.04-8.34-7.18-4.06-7.75-1.84-15.37-4.12-7.54-2.26-7.69-0.24-14.97-2.48-35.65-11.02-36.69-6.8-39.52-8.36-9.4-5.18-18.47-2.86-22.83-4.14-10.88-3.14-16.66-1.4-19.98-2.46-18.09-5.74-18.88-1.1-32.41-5.02-10.85-3.14-19.2-1.58-27.49-1.88-3.06-0.12-11.05-4.64-22.34-4.5l-162.17-179.6 32.61 42.44c-45.83-1.9-52.15 31.82-43.2 44 26.78 36.46 90.82 10.24 73.65-23.18-8.26-16.08-20.33-17.94-30.45-20.82z"/>
		<path id="Path 2" fill-rule="evenodd" class="s1" d="m602.8 1790.15c-0.1-1.18-1.08-13.23 0.14-14.84 1.57-2.05 2.32-0.98 3.82-3.32 0.93-1.45 3.92-6.12 13.02-17.12 5.14-6.22 4.54-14.24 6.11-16.78 13.28-21.59-9.59-73.56-12.53-77.97-9.71-14.56-7.62-15.63-8.56-16.81-2.73-3.43-31.13-58.05-37.94-69.66-12.54-21.38-12.09-21.62-13.35-23.36-17.22-23.85-0.3-54.87 24.27-55.34 37.9-0.72 57.17-7.28 121.67 81.05 4.36 5.97 8.12 8.25 9.8 10.27 13.67 16.35 13.58 16.27 30.03 30.07 11.48 9.63 12.14 8.39 13.07 9.27 15.13 14.48 75.92 32.68 102.33 24.71 29.02-8.77 31.74-1.01 100.13-34.12 9.36-4.53 8.8-5.41 9.61-5.79 2.75-1.32 17.63-8.41 32.89-19.21 24.43-17.28 24.69-16.86 26.68-18.54 23.09-19.5 24.68-17.46 46-38.73 43.36-43.24 68.78-40.16 91.56-39.41 45.83 1.51 38.88 42.25 24.15 60.47-36.57 45.25-128.06 176.58-275.54 280.92-1.63 1.15-19.52 13.8-20.43 14.24-9.19 4.44-18 12.87-22.44 14.97-13.29 6.31-11.76 8.61-24.96 14.96-25.97 12.5-25.15 14-27.48 14.91-24.44 9.53-22.55 13.4-52.36 25.03-1.58 0.61-19.36 7.55-19.69 7.81-6.66 5.26-30.12 5.16-32.77 5.15-9.73-8.33-8.95-8.76-17.11-18.31-5.93-6.96-4.37-7.89-10.39-14.71-9.28-10.51-15.14-22.12-17.78-24.7-2.2-2.14-57.37-77.14-61.95-85.11l284.19-115.95c-84.93 24.12-150.84-21.56-151.63-21.97-12.28-6.39-50.36-39.86-61.21-58.58-0.64-1.11-0.72-1.03-24.43-30.14-2.58-3.17-31.6-44.44-64.31-39.37-14.7 2.28-4.86 11.38-3.31 14.42 12.74 24.98 13.86 24.06 26.7 48.99 8.02 15.57 9.13 14.74 16.64 30.36 8.66 18.03 25.66 44.43 28.26 62.33 0.59 4.09 4.54 9.64 4.66 12.52 2.14 49.18 0.05 51.83-2.69 55.31-1.6 2.04-0.14 2.72-12.84 29.7-2 4.25-12.01 6.88 0.22 19.53 3.52 3.63 46.29 65.89 57.4 77.31 7.84 8.05 17.62 32.8 24.28 27.38 8.92-7.27 11.7-1.58 20.89-8.72 4.66-3.62 7.18 0.46 17.47-7.48 0.92-0.72 13.86-4.18 16.05-6.66 2.85-3.21 38.34-16.47 66.25-38.29 1.37-1.06 5.77-0.59 11.5-6.16 0.81-0.79 0.81-0.6 10.96-8.83 1.24-1 2.31 0.81 17.2-10.14 6.08-4.47 71.43-52.56 74.3-58.11 0.79-1.53 15.26-11.28 16.61-13.14 5.16-7.11 15.48-13.65 34.73-32.85 4.79-4.77 46.8-46.69 57.71-61.77 2.48-3.45 3.66-2.13 35.35-39.68 1.65-1.95 0.95-2.44 19.95-24.95 1.1-1.3 0.74-1.3 12-17.67 7.18-10.42 38.8-42.22 23.57-43.03-26.03-1.38-33.48-0.76-69.71 33.99-7.05 6.77-7.88 5.48-14.87 12.57-25.17 25.56-128.86 94.21-187.7 103.13z"/>
		<path id="Path 3" fill-rule="evenodd" class="s2" d="m1955.47 1785.03q-1.73 3.74-3.46 7.49c-5.34 10.4-41.62 55.49-55.25 76.82-2.16 2.83-26.48 34.76-26.71 35.57-0.11 0.41-14.7 22.05-22.43 27.95-1 0.1-8.15 8.92-69.99-20.25-3.79-1.79-33.04-15.58-46.92-23.4-43.21-24.32-42.07-26.07-45.85-28.14-14.51-7.94-13.67-9.2-14.96-9.82-11.51-5.51-26.1-17.98-29.93-20.21-17.34-10.11-68.53-52.55-106.37-88.64-3.06-2.92-35.67-34.02-37.92-36.95-10.28-13.43-31.18-35.29-34.01-38.25-19.79-20.7-28.23-33.14-29.93-34.92-19.34-20.3-17.04-22.02-18.71-23.77-9.38-9.8-7.48-11.04-16.61-20.75-16.76-17.83-25.64-36.22-28.57-38.77-10.74-9.35-11.7-35.3 5.88-50.57 6.88-5.97 49.17-3.74 52.32-2.78 3.57 1.09 25.9 7.89 41.65 20.93 1.09 0.9 12.93 10.7 13.34 11.53 2.47 4.95 5.02 2.62 7.48 7.48 3.04 5.97 25.25 20.44 28.1 24.42 3.76 5.23 38.45 26.84 41.92 30.21 5.22 5.06 9 5.17 9.49 5.56 22.58 18.11 33.32 19.13 50.53 28.76 15.92 8.91 20.09 6.42 23.82 9.3 11 8.49 18.07 4.01 22.46 7.47 5.63 4.44 6.6 1.56 13.16 4.04 8.12 3.05 8.68-0.01 15 2.41 12.13 4.66 13.39 4.55 34.83 4.2 12.95-0.21 12-4.12 19.88-4.75 24.85-1.98 36.62-10.41 44.92-14.34 13.23-6.27 12.39-7.16 24.47-15.67 10.06-7.09 8.81-8.24 18.45-16.03 4.74-3.82 44.74-54.62 45.09-55.09 11.47-15.66 12.44-14.67 13.38-16.05 6.73-9.87 20.93-18.76 23.74-21.41 5.35-5.03 6.28-3.17 12.46-7.23 14.18-9.33 52.63-10.09 66.66 0.02 11.74 8.45 9.42 10.24 13 24.28 1.8 7.1 2.4 9.5-39.08 82.85-43.99 77.79-46.24 90.37-42.57 124.2 3.28 30.18 25.46 33.34 27.24 52.3l-210.34-105.85c-41.77 11.6-131.18-19.22-149.12-31.86-4.57-3.21-26.47-12.98-39.91-22.45-3-2.11-16.77-8.57-21.15-13.55-2.18-2.48-2.99-1.41-33.72-23.85-29.27-21.38-41.23-39.74-55.41-46.57-3.12-1.51-2.72-4.68-4.59-5.53-21.67-9.92-21.38-12.69-45.08-11.32-7.4 0.43-5.6 4.51 1.79 14.53 36.52 49.58 92.41 117.39 101.04 123.49 1.33 0.94 22.76 23.35 24.72 25.4 5.55 5.81 52.09 54.48 72.52 69.41 0.44 0.32 16.61 16.83 24.45 20.66 1.45 0.71 11.17 10.83 19.98 14.93 3.12 1.45 2.49 2.34 34.43 25.73 34.22 25.05 109.99 68.8 147.29 79.89 4.42 1.31 4.42 0.95 8.06 3.86 6.75 5.41 6.11-0.78 11.74-7.38 2.94-3.45 1.61-6.18 8.34-11.53 5.1-4.05 43.55-60.43 56.49-75.82 12.94-15.39 12.31-17.83 11.85-19.6-2.33-9.01-16.15-25.61-17.07-34.76-0.93-9.2-1.76-8.82-4.44-17.54-0.73-2.34-1.86-34.74 0.86-39.63 6.23-11.22 1.96-22.56 8.38-28.56 1.28-1.2 0.12-1.6 9.73-19.73 1-1.89 0.11-2.13 11.34-24.21 3.2-6.29 3.95-5.66 6.01-12.33 0.41-1.35 1.57-0.61 8.59-15.37 1.65-3.47 3.3-2.31 23.29-41.97 9.22-18.27 20.02-28.7 4.25-29.45-28.65-1.38-39.73 7-97.12 81.57-0.8 1.04-38.02 39.13-44.95 42.45-1.86 0.88-1.03 2.28-22.42 12.58-14.69 7.07-14.59 6.62-30 12.38-1.54 0.57-1.59-0.39-19.96 4.99-0.79 0.23-1.54 0.45-10.21 1.14z"/>
		<path id="Path 4" fill-rule="evenodd" class="s3" d="m2554.82 1378.54v24.94c-1.04 1.22-1.6-0.05-2.58 1.1-0.94 1.11 0.34 1.39-0.52 2.56-5.2 7.05-18.86 7.25-20.6 7.27-0.04 0-2506.6 0-2507.11 0-12.83-0.13-11.76-3.73-23.69-8.43v-24.95c5.29-2.79 5.33-2.66 5.71-3.01 8.29-7.57 8.85-7.8 27.97-7.8 199.97-0.01 2494.54-0.04 2499.62 0 11.82 0.1 10.42 4.08 21.2 8.32z"/>
		<path id="Path 5" fill-rule="evenodd" class="s4" d="m1954.86 2035.87h-29.93c-20.22-19.86-23.67-15.26-44.5-34.13-15.61-14.14-42.39-21.39-40.89-47.02 0.34-5.94 14.07-20.77 15.55-22.37 2.24-2.75 1.03-3.58 26.51-35.57 2.41-3.02 1.2-3.55 3.72-6.59 1.1-1.32 11.24-13.53 12.42-17.56 1.41-1.21 1.53-0.7 2.63-2.25 2.67-3.78 2.07-3.97 4.95-7.6 11.65-14.67 10.61-15.29 22.43-29.96 2.87-3.56 2.23-3.85 5.06-7.47 2.29-2.93 22.42-28.7 26.92-37.86 2.68-3.63 1.81-3.98 4.46-7.74 0.57-0.83 5.97-8.5 8.14-9.55 12.59-6.1 18.37-5.71 20.03-5.6 2.97 0.19 31.62 15.61 38.12 24.84 1.68 2.37 5.84 3.06 6.42 3.55 19.2 15.75 20.36 14.09 22 15.48 12.98 10.89 14.1 9.46 25.22 22.01 14.38 16.23-6.86 41.94-9.18 44.75-10.1 12.21-112.73 157.26-116.63 157.82-2.48 0.35-1.65 1.34-3.45 2.82l-67.51-71.11c-2.99-53.69 83.13-49.78 70.25 7.54-1.27 5.66-12.06 20.7-17.74 22.33-4.95 1.42-4.88 2.88-9.68 1.22-4.76-1.65-6.3 4.58-2.27 5.77 0.68 0.2 1.12-1.06 7.17 2.84 0.45 0.29 5.25 4.89 6.73-0.25 0.82-2.87 4.64-0.24 22.6-29.74 4.38-7.19 11.68-13.45 15.34-22.21 1.47-3.51 10.22-9.59 12.06-15.14 0.62-1.9 2.85-0.21 14.67-20.2 1.9-3.2 3.26-5.5 27.54-37.41 8.26-10.83 26.62-30.7 20.3-34.19-1.12-0.61-0.6-0.88-12.58-9.59-18.32-13.32-22.3-16.96-24.1-18.6-1.46-1.35-2.78 0.65-19.97-14.96-9.97-9.05-10.5-0.7-18.57 9.99-18.78 24.88-50.36 69.66-59.6 79.88-4.43 4.9-6.91 12.19-13.82 18.56-2.42 2.22-17.63 26.12-19.1 28.43-0.6 0.94-0.82 0.76-8.38 11.21-4.27 5.91-8.49 7.11-2.59 11.21 5.14 3.57 5.13 3.38 9.5 7.95q1.12-2.32 2.24-4.64l67.51 71.11-28.11-78.03c-5.06-2.35-6.08-2.61-8.95 2.14-1.84 3.06 3.16 13.92 10.89 4.28-1.65-5.18-1.67-5.02-1.94-6.42l28.11 78.03-67.51-71.11q-1.12 2.32-2.24 4.64c1.11 0.07 1.31 2.23 2.43 2.3 0.55 0.04 2.79-0.09-0.19-6.94z"/>
		<path id="Path 6" fill-rule="evenodd" class="s4" d="m630.21 2035.87h-29.93c-42.79-52.97-111.35-153.82-123.93-166.67-12.32-12.58-11.99-36.52 2.16-45.91 59.13-39.24 81.55-68.31 97.08-55.99 2.74 2.17 9.45 2.58 12.45 7.66 1.91 3.22 13.34 21.01 14.51 22.83 2.05 2.23 85.74 118.4 99.54 134.93 0.48 0.54 4.44 4.97 6.36 6.47 0.27 0.49 2.43 4.53 3.63 5.96 15.42 18.5-4.28 33.51-6.56 35.24-5.67 4.33-68.48 52.16-71.92 52.69-2.42 0.37-1.61 1.32-3.39 2.79l-4.88-38.85c-1.17-0.17-8.16-1.16-13.38-6.23-40.25-39.06 10.44-82.94 43.68-56.63 23.03 18.23 6.79 45.09 17.05 33.21 7.64-8.86 9.12-6.96 9.68-7.78 3.63-5.29-38.6-55.46-46.45-67.6-15.94-24.65-18.23-23.72-21.42-29.05-4.17-6.96-25.1-34.47-27.34-37.42-14.78-19.43-15.08-18.96-16.06-20.83-3.36-6.44-4.93-6.88-11.17-2.78-3.01 1.97-27.94 18.32-36.16 26.62-5.41 5.45-12.79 8.63-14.78 10.23-16.74 13.41-1.22 19.46 3.29 26.66 1.69 2.68 14.85 23.64 22.69 32.4 8.59 9.61 42.75 58.58 43.25 59.16 23.51 27.8 20.81 29.71 22.94 32.04 14.73 16.12 15.1 20.02 19.5 16.21 4.29-3.72 4.82-2.36 8.65-4.07 2.35-1.05 1.27-1.56 1.25-4.23q-2.61 0.04-5.22 0.09l4.88 38.85-0.87-70.35c6.31 5.24 9.97 2.31 8.24-5.69-1.37-6.35-14.43-4.36-8.24 5.69z"/>
		<path id="Path 7" fill-rule="evenodd" class="s5" d="m1949.7 1014.66q0.19 2.37 0.39 4.75c-22.38 27.61-45.11 14.41-53.22 5.38-9.85-10.99-19.19 32.02-79.28-2.88-0.27-0.98-0.53-0.68-0.8-1.69-0.51-1.88-1.1-1.32-2.36-2.85-16.05-17.18-18.25-44.26-19.25-47.94-1.41-5.15 4.62-34.96 5.78-37.12 11.18-20.67 13.83-28.99 46.62-37.75 19.35-5.17 19.77-3.16 42.43 6.62 4.03 1.73 3.62-32.22-5.76-40.75-15.44-14.06 49.81-18.92 52.89-15.51 1.71 1.89 0.69 115.62 0.82 156.15 0.02 4.57 0.05 8.21 0.1 10.66 0.13 6.3 3.16 3.81 9.23 2.07zm-99.33-92.4c-11.87 12.46-9.68 62.32-3.4 77.4 12.34 29.67 40.75 10.05 42.21-10.4 1-14.05 2.38-13.74 2.43-14.95 0.83-22.68-1.84-35.72-5.42-43.91-3.37-7.69-7.56-11.1-10.4-14.19-14.5-11.46-24.57 5.16-25.42 6.05zm-775.41-55.48c-4.64-6.89-6.08-6.7-6.58-9.42-2.19-11.82 50.06-15.51 53.08-12.47 2.43 2.46 0.59 132.37 1.15 161.94 0.23 12.26 10.88 8.62 11.04 8.65 1.75 0.29 7.7 6.07-14.13 17.16-16.38 8.32-34.38-3.8-35.29-5.83-6.23-13.87-9.74 8.12-37.41 8.08-2.61 0-21.4-0.02-32.03-6.37-18.57-11.09-14.68-15.91-21.03-18.75-1.94-0.86-1.96-5.67-3.63-8.26-11.28-17.48-9.31-59.71 1.03-77.39 5.3-9.08 6.8-7.7 9.96-12.69 4-6.33 5.72-4.13 11.16-8.91 9.16-8.06 25.46-8.33 29.31-9.13 8.8-1.82 9.02-1.81 30.29 5.53q0.04 0.04 0.09 0.09c3.55 3.47 4.5 7.42 6.74 2.84 1.15-2.36 0-2.32-2.64-7.32 0.01-17.42 0.47-25.4-1.11-27.75zm-6.46 137.16c13.69-23.3 11.86-80.17-10.38-89.84-2.62-1.14-5.52-1.62-8.72-1.32-9.09 0.86-14.37 12.73-15.04 14.24-4.27 9.59-3.57 9.59-6.24 19.77-5.96 74.8 28.41 77.51 40.38 57.15z"/>
		<path id="Path 8" fill-rule="evenodd" class="s5" d="m1384.84 879.61c0 42.69-2.01 48.72 6.25 48.87 51.07 0.88 53.17 0.65 53.59-3.63 1.56-15.8 0.42-64.13 0.15-64.78-2.64-6.45-17.61-16.23-3.95-16.37 57.68-0.59 60.06-1.53 60.89 3.27 0.99 5.67-7.41 6.77-7.66 17.71-0.81 34.17-0.11 135.28-0.02 147.04 0.04 6.29 16.26 18.62 1.81 18.73-55.77 0.43-56.54 2.23-59.73-1.32-4.01-4.47 8.6-9.72 9.08-17.41 0.06-1.02 0.14-60.73 0.01-62.15-0.69-7.33-58.67-3.29-59.28-2.72-0.26 0.25-5.13 59.94 2.98 69.67 0.74 0.89 10.39 8.3 6.9 12.59-1.71 2.11-62.76 2.16-64.64 0.16-6.81-7.25 9.13-6.19 9.25-27.42 0.06-11.15 0.76-136.24-0.5-139.3-1.88-4.58-17.56-18.75-3.82-18.84 52.85-0.36 67.38-0.94 59.63 8.23-2.95 3.49-4.02 2.08-6.77 5.55-3.44 4.34-4.1 20.32-4.17 22.12zm-807.34-19.28c-9.65-2.78-9.65-2.3-19.54-0.12-1.44 0.32-13.36 2.96-16.7 7.63-6.06 8.48-19.79 23.88 36.9 45.78 3.49 1.35 28.69 11.08 41.36 21.7 28.1 23.55 19.41 64.89 7.98 76.29-28.36 28.32-72.1 23.66-82.2 23.36-3.49-0.11-5.55-4.08-10.04-4.66-59.44-7.7-56.31-62.3-22.41-71.61 25.42-6.98 41.8 18.19 40.56 38.23-0.75 12.3-19.79 17.09-7.35 16.53 4.54-0.21 16.06 8.07 37.19-5.92 39.2-25.96-31.65-52.96-33.42-54.94-3.15-3.53-37.98-14.11-52.69-40.13-18.48-32.7 7.6-75.67 75.75-73.29 0.39 0.02 13.32 4.11 15.04 4.41 11.98 2.13 11.94 2.05 22.82 7.66 22.6 11.67 34.04 48.68-2.96 60.87-8.6 2.84-27.94-7.26-29.98-15.04-4.65-17.79-2.86-17.93 0.88-32.25 0.29-1.51 0.51-1.24 0.51-2.68-0.01-1.72-0.85-0.91-1.7-1.82z"/>
		<path id="Path 9" fill-rule="evenodd" class="s6" d="m1267.92 631.56c0.81-1.32 5.84-9.52 12.8-14.66 8.92-6.62 1.88-12.28 0.49-16.64-6.98-21.9 18.78-39.42 19.69-40.32 42.88-42.88 42.08-47.66 50.29-44.62 14.5 5.36 4.24 19.28 3.25 20.62-0.29 0.4-39.37 39.54-40.12 40.1-10.59 7.78 0.69 16.68 3.67 13.36 19.38-21.66 20.75-20.3 22.26-22.32 5.95-8 13.69-13.24 14.97-14.96 3.8-5.1 5.4-3.58 8.29-9.38 2.71-5.42 16.47-4.82 18.39 4.9 2.54 12.82-36.71 41.56-47.77 55.42-3.1 3.86-0.26 18.46 14.06 4.16 3.19-3.18 37.67-37.62 39.6-40.06 8.82-11.16 33.09 4.38 6.36 23.86-20.27 14.76-51.13 65.96-74.74 48.22-11.81-8.88-10.53 3.06-29.9 16.52-18.66 14.74-24.8 25.6-26.32 28.3-0.89 0.94-36.8 36.93-40 40.14-35.53 35.63-35.96 35.17-38.77 38.52-20.14 23.96-51.8 1.48-26.44-23.92 66.15-66.26 68.92-68.6 75.38-74.04 2.34-1.28 3.09-0.32 13.4-11.58 19.12-20.28 19.65-19.72 21.16-21.62z"/>
		<path id="Path 10" fill-rule="evenodd" class="s7" d="m849.49 976.71c14.53-20.78 17.9-16.75 37.33-25.52 23.54-10.63 24.4-9.32 30.98-16.03 3.13-3.19 4.38-2.81 3.45-5.48-6.34-18.03-34.51-27.4-25.74-13.04 11.4 18.66-16.88 47.47-40.52 17.65-8.1-10.22-5.79-12.12 2.71-21.88 0.07-0.08 3.51-7.51 4.46-7.95 30.39-14.36 31.98-8.53 39.73-11.1 12.83-4.25 43.28 4.69 52.86 13.44 26.14 23.92 12.27 61.39 15.46 102.47 0.74 9.55 14.76 0.78 12.59 10.18-1.62 7.04-11.58 10.49-12.86 10.93-0.94 0.32-4.49 4.37-7.85 4.49-2.85 0.11-20.28 5.08-33.21-12.3-2.22-4.52-1.69-6.61-4.05-5.1 0 0-2.34 4.24-2.55 4.61-12.04 12.06-42.34 22.76-65.62 0.45-0.94-0.79 0.45-1.24-0.57-2.1-0.25-0.21-0.29-0.08-3.91-1.09-1.76-5.48-3.09-4.72-4.91-10.02-0.92-2.7-2.31-24.18 2.22-32.61l41.45 10.28c9.63 38.17 31.67 7.42 32.87-2.7 3.51-29.47-1.73-29.77-3.96-29.04-1.52 0.5-0.79 1.65-17.22 10.04-10.25 5.23-11.52 19.74-11.69 21.7z"/>
		<path id="Path 11" fill-rule="evenodd" class="s7" d="m842.23 976.92c-16.4 61.95-55.43 58.06-74.83 58.02-7.38-0.01-9.3-3.48-12.85-4.45-9.54-2.59-9.11-3.08-17.55-7.88-25.67-14.61-29.33-59.18-27.01-65.68 6.16-17.26-0.24-23.26 22.26-45.14 18.61-18.1 56.58-20.22 57.65-19.81 8.34 3.15 12.69 3.22 20.04 4.48 10.11 1.73 23.27 11.89 24.85 15.57 5.75 13.31 12.57 21.39 5.53 42.56-11.24 33.81-55.4 41.45-70.4 34.88-20.56-9.01 4.62 15.85 22.46 16.32 2.54 0.07 17.07 0.45 29.54-11.83 10.83-10.65 6.49-19.44 20.31-17.04l-86.01-30.14c-0.78 16.25-5.55 34.9 15.72 24.22 0.68-0.34 10.04-7.7 10.9-8.38 28.49-22.41 14.66-56.98-2.6-49.49-17.31 7.51-19.38 21.51-19.74 23.96-0.8 5.42-2.49 4.64-4.28 9.69z"/>
		<path id="Path 12" fill-rule="evenodd" class="s5" d="m1556.26 916.92c0.12 3.94 6.07 24.7-17.99 30.19-25.17 5.76-38.84-44.27 4.9-50.84 18.41-2.76 18.45-7.17 42.24-0.96 3.89 1.01 4.91-2.11 27.67 9.27 0.87 0.44 14.56 16.48 15.49 24.84 2.73 24.75-5.16 88.85 6.88 86.21 0.98-0.21 1.58-1.24 2.47-1.7 11.56-5.98 0.48 9.56 0 10.23-11.51 15.31-38 14.27-49.83 0.18-0.05-0.63-0.94-12.47-4.32-6.6-0.57 1 0.48 1.15-0.25 2.16-0.17 0.23 0 0-2.37 2.59-7.77 7.76-9.88 4.32-18.62 10.87-1.32 0.99-22.31 4.6-29.51-1.19-6.22-5.02-11.27 0.51-20.53-14.87-2.07-3.44-17.51-29.07 3.59-50.11 11.82-11.78 35.83-17.44 51.02-24.36 13.96-6.35 20.49-13.76 3.31-27.95-6.06-5.01-15.51-4.96-16.92-4.95-3.32 3.33-0.43 3.63 2.77 6.99zm28.47 40.28c-0.21-2.65-5.1-1.33-10.96 1.74-7.58 3.96-16.81 10.85-19.71 15.89-12.31 21.32 15.89 50 30.31 9.73 0.49-15.66 1.32-15.43 0.36-27.36zm-375.58 72.72c-2.33 1.24-17.01 9.1-32.64 4.43-2.72-0.81-22.95-6.85-27.41-22.53-2.9-10.19-5.43-9.42-5.59-19.92-1.12-72.3 1.77-73.85-6.67-82.56-1.23-1.27-7.18-11.49-0.4-12.96 0.8-0.17 46.89-0.17 47.75 0.02 7.97 1.74-0.19 66.93 4.86 85.48 1.78 6.54-4.47 30.93 19.79 29.12 4.56-0.34 17.24-10.89 19.18-14.65 12.85-24.91 20.63-66.35 10.77-68.49-7.89-1.71-21.79-0.16-20.81-23.39 0.75-17.61 26.89-21.19 34.26-10.55 5.08 7.34 7.04 6.59 7.34 15.58 1.56 46.71-1.14 46.45-2.65 67.48-0.38 5.31-13.34 39.3-14.62 42.67-11.73 30.77-35.31 55.16-50.34 62.91-2.3 1.18-7.71 9.26-37.97 7.1-9.2-0.65-24.61-12.21-25.38-20.36-0.44-4.77-6.88-38.06 28.11-33.24 11.37 1.57 21.47 19.77 12.65 30.87-10.74 13.51 17.5 2.3 30.3-14.74 6.9-9.19 7.01-8.82 13.78-18.11 4.79-4.58 4.84-4.47 5.17-4.94 8.85-12.53-8.87 0.33-9.48 0.78z"/>
		<path id="Path 13" fill-rule="evenodd" class="s5" d="m1642.82 1026.83c10.04-12.93 9.31-13.39 9.47-15.11 0.16-1.8 0.07-86.71 0.01-87.12-1.14-9.04-11.28-10.46-9.91-17.71 0.96-5.07 51.1-13.75 55.26-9.56 2.43 2.45-3.04 26 5.72 10.23 1.53-2.77 12.34-9.85 14.5-10.49 1.77-0.53 18.6-5.53 22.45-5.53 0.06 0 20.8 5.59 22.12 6.3 14.97 8.14 15.56 18.34 18.14 21.46 6.89 8.33 0.3 83.96 3.96 92.87 2.65 6.45 8.39 1.04 10.79 1.18 16.58 0.97-28.69 42.44-51.81 10.51-12.74-17.61 8.77-104.79-20.72-106.19-28.66-1.36-24.2 33.96-24.1 74.2 0 2.4 0.05 24.37 7.3 29.16 18.6 12.3-15.24 9.41-43.01 9.41-12.28 0.01-14.44 4.66-20.17-3.61z"/>
		<path id="Path 14" fill-rule="evenodd" class="s7" d="m1952 1007.07c-1.19-1.51-8.49-10.76 4.43-23.59 9.88-9.82 41.38-13.13 36.43 23.48-0.48 3.61-4.78 8.34 2.02 9.39 32.52 5.01 28.42-15.1 22.08-21.73-17.37-18.21-21.04-13.22-40.68-28.96-9.44-7.57-10.56-6.79-15.14-18.2-0.47-1.19-11.29-8.75 1.23-35.41 6.48-13.78 48.43-22.05 54.89-20.07 23.32 7.13 27.32 0.81 42.76 19.76 19.18 23.51-16.2 45.9-31 25.62-8.56-11.75 5-25.95-4.42-27.35-31.91-4.76-25.94 16.99-14.38 23.7 2.76 1.61 2.48 1.95 33.7 21.65 25.92 16.36 26.18 48.91 17.74 58.55-4.36 4.98-6.7 11.88-19.48 15.38-30.94 8.48-31.48 8.77-62.5 0.78-10.3-2.65-10.09-3.04-18.32-9.54-2.25-1.78-3-0.76-4.46-3.39-0.44-0.78-0.16-0.64-4.9-10.07z"/>
		<path id="Path 15" fill-rule="evenodd" class="s5" d="m706.13 1025.22c-1.53 1.45-2.13 0.7-2.75 2.61-0.29 0.89-0.53 0.61-0.82 1.47-19.01 6.1-20.33 12.9-37.07 1.79-4.61-3.06-5.86-1.45-8.62-6.35-5.8-10.32-4.92-10.82-4.91-102.72 0-11.48-11.73-4.97-12.38-9.8-0.17-1.28-2.09-15.48 2.88-15.81 8.48-0.55 28.18 5.34 35.18-19.28 1.49-5.24 18.07-5.23 18.41-0.27 1.08 15.99-1.5 18.5 4.12 19.36 7.27 1.12 10.68-1.76 10.99 5.76 0.04 1.08 0.52 12.68-3.5 13.1-7.77 0.8-10.92-2.28-11.24 4.23-1.95 39.67-0.45 78.18-0.19 84.97 0.08 2.07 2.62 12.11 8.96 10.67 13.91-3.16 0.99 10.21 0.94 10.27z"/>
		<path id="Path 16" fill-rule="evenodd" class="s8" d="m1264.2 627.42c-1.77 1.66-1.73 1.62-21.82 21.08-6 6.28-5.9 6.16-11.6 12.54-45.56-46.18-43.46-47.9-48.87-53.7-4.34-4.64-17.55-23.58-18.93-29.12-0.03-0.12-4.54-5.04-5.17-8.22-3.36-16.9-12.15-29.76-0.52-38.78 7.46-5.76 8.47-0.08 59.49 48.7 5.58 5.34 39.26 38.68 47.42 47.5z"/>
		<path id="Path 17" fill-rule="evenodd" class="s8" d="m1293.84 659.74c9.2 2.56 12.75 10.82 31.03 29.12 36.71 36.79 37.35 36.09 40.53 39.3 29.21 29.4 8.09 43.42-1.84 42.36-13.21-1.41-10.65-6.38-54.06-51.28-10.58-10.94-9.34-11.8-19.95-22.48-8.64-8.68-12.06-3.22-20.95-11.58 16-18.08 18.36-19.06 25.24-25.44z"/>
		<path id="Path 18" fill-rule="evenodd" class="s9" d="m1341.24 1195.18c-14.84-4.5-16.86-27.9-27.48-27.82-5.08 0.04-2.85 2.84-4.18 24.28-0.26 4.11-10.49 5.38-11.72 0.03-0.19-0.83-0.24-64.21 0.04-65.35 1.75-7.16 30.85-1.35 33.47-0.82 22.75 4.55 15.06 25.59 11.44 30.33-6.16 8.06-8.32 6.92-9.07 8.19-1.1 1.85-1.15 2.62 14.31 22.81 9.12 11.91-4.22 8.04-6.81 8.35l-8.81-48.47c-0.04-19.29-22.34-13.77-22.68-10.03-2.9 31.52 18.95 19.86 22.68 10.03z"/>
		<path id="Path 19" fill-rule="evenodd" class="s10" d="m1116.68 1195.23c-13.88-4.1-5.53-17.81-19.98-17.85-7.8-0.03-20.83-4.31-24.79 9.13-0.4 1.33-4.06 13.76-14.9 8.86-1.03-0.47-2.29-1.04 2.13-13.97 2.23-6.54 3.27-5.81 5.74-12.12 5.3-13.53 4.48-13.81 5.1-14.91 8.35-14.7 7.4-31.18 19.24-31.23 2.5-0.01 9.06-0.04 17.61 25.83 9.06 27.43 11.3 26.49 14.97 37.42 3.99 11.88-4.71 8.72-5.12 8.84l-28.88-55.23c-1.79 6.09 0.77 6.79-3.1 11.85-0.29 0.39-4.87 10.85-4.39 11.99 0.82 1.98 13.14 1.41 14.28 1.36 5.85-0.28 3.23-2.94 1.36-8.49-2.57-7.59-2-7.59-4.3-15.12-0.73-2.36-1.3-1.63-3.85-1.59z"/>
		<path id="Path 20" fill-rule="evenodd" class="s11" d="m1440.32 1147.45c-3.99-0.27-3.73 0.93-3.63 4.16 0.58 18.68 0.88 18.46 0.55 37.32-0.01 0.7-0.12 7.45-6.13 6.25-3.72-0.74-3.72-14.88-3.72-16.21-0.01-47.44-2.55-59.51 8.64-54.99 3.52 1.42 29.12 34 33.41 41.68 8.7 15.6 5.34-5.01 5.55-36.62 0.06-9.59 10.84-6.35 11.64-2.67 0.22 1.02 0.09 63.72 0 65.25-0.1 1.62-4.46 12.86-19.07-7.08-9.26-12.64-16.77-18.26-27.24-37.09z"/>
		<path id="Path 21" fill-rule="evenodd" class="s10" d="m1579.34 1176.47c-0.37 12.34 1.27 16.46-13.51 18.57-13.93 2-13.77 1.75-27.71-0.39-5.89-0.9-38.2-27.03-10.65-63.72 1.3-1.73 25-14.41 35.4-8.63 6.34 3.52 19.9 3.64 15.44 14.33-4.89 11.69-25.14-17.7-43.17 7.03-8.31 11.39-6.59 45.02 25.46 41.81 6.58-0.65 15.67-14.3 2.56-15.59-0.83-0.08-8.08-0.8-5.79-8.67 1.44-4.97 21.78-5.61 21.94 2.68 0.09 4.19-0.05 8.39 0.03 12.58z"/>
		<path id="Path 22" fill-rule="evenodd" class="s12" d="m975.66 1149.2c0.27-1.83 2.38-16.16 11.19-20.28 21.82-10.18 26.3-8.73 30.1-7.52 20 6.35 18.21 11.13 17.6 12.76-4.43 11.84-18.83-1.94-25.28-0.73-18.35 3.42-19.06 17.84-21.1 23.36-1 2.72 2.67 16.82 5.96 19.97 16.1 15.44 25.41 6.15 29.72 3.73 13.63-7.62 11.22 5.83 9.65 7.75-6.61 8.12-14.58 6.9-16.84 7.53-27.5 7.68-48.75-18.91-41-46.57z"/>
		<path id="Path 23" fill-rule="evenodd" class="s13" d="m1231.42 1195.22c-7.55-1.12-10.77 1.22-10.82-6.25-0.02-3.6 0.02-3.56 0.01-44.93-0.01-14.51-3.89-20.92 10.81-20.92 20.12 0.01 35.89-2.66 35.87 5.96-0.03 11.1-6.17 5.2-25.89 5.76-10.79 0.3-6.29 15.84-6.17 17.02 0.69 6.65 27.02-0.81 24.54 9.92-1.32 5.7-3.77 2.69-18.37 3.1-9.72 0.27-7.08 4.32-6.69 14.08 0.52 13.26 30.82 1.56 32.47 9.78 1.84 9.24-20.62 6.48-35.76 6.48z"/>
		<path id="Path 24" fill-rule="evenodd" class="s1" d="m1164.09 1195.22c-5.86-1.77-5.79-2.72-5.82-8.77-0.22-41.37 0.09-41.31 0-44.9-0.32-12.25-6.58-6.06-19.35-6.77-4.27-0.24-3.47-9.13-2.12-10.53 0.79-0.82 57.18-4.14 57.95 2.14 1.57 12.86-5.56 8.08-18.51 8.95-5.64 0.38-3.78 12.08-3.88 41.13-0.04 12.4 4.19 17.75-8.27 18.75z"/>
		<path id="Path 25" fill-rule="evenodd" class="s0" d="m1386.06 1195.22c-12.48-0.99-8.22-6.37-8.26-18.75-0.16-49.59-1.23-53.36 5.73-53.36 14.1-0.01 8.41 6.95 8.41 20.93-0.02 45.74 2.07 48.82-5.88 51.18z"/>
		<path id="Path 26" fill-rule="evenodd" class="s14" d="m1236.41 297.12h14.97c-1.96 0.4-0.68 2.08-2.66 2.5-10 2.12-10-2.04-12.31-2.5z"/>
		<path id="Path 27" fill-rule="evenodd" class="s15" d="m1266.34 297.12h14.97c-1.93 0.38-2.81 4.42-12.3 2.5-1.97-0.4-0.68-2.1-2.67-2.5z"/>
		<path id="Path 28" fill-rule="evenodd" class="s16" d="m702.09 1932.72q2.73-0.03 5.47-0.05c0.84 3.38 0.07 3.27 0.89 6.52-1.92-1.5-5.88-5.93-6.36-6.47z"/>
		<path id="Path 29" fill-rule="evenodd" class="s17" d="m1553.49 909.93q1.38 3.49 2.77 6.99c-3.2-3.36-6.09-3.66-2.77-6.99z"/>
		<path id="Path 30" fill-rule="evenodd" class="s18" d="m1955.47 1785.03q-1.73 3.74-3.46 7.49 1.73-3.75 3.46-7.49z"/>
		<path id="Path 31" fill-rule="evenodd" class="s19" d="m706.13 1025.22c-1.37 2.49-1.34 2.3-3.57 4.08 0.29-0.86 0.53-0.58 0.82-1.47 0.62-1.91 1.22-1.16 2.75-2.61z"/>
		<path id="Path 32" fill-rule="evenodd" class="s20" d="m852.18 1019.34c3.62 1.01 3.66 0.88 3.91 1.09 1.02 0.86-0.37 1.31 0.57 2.1-2.77-1.16-2.53-1.18-4.48-3.19z"/>
		<path id="Path 33" fill-rule="evenodd" class="s21" d="m1814.43 1017.37c1.26 1.53 1.85 0.97 2.36 2.85 0.27 1.01 0.53 0.71 0.8 1.69-2.05-2.05-2.01-1.8-3.16-4.54z"/>
		<path id="Path 34" fill-rule="evenodd" class="s22" d="m1926.75 1957.84c1.45 3.08 1.95 2.83 1.94 6.42-1.65-5.18-1.67-5.02-1.94-6.42z"/>
		<path id="Path 35" fill-rule="evenodd" class="s23" d="m577.5 860.33c0.85 0.91 1.69 0.1 1.7 1.82 0 1.44-0.22 1.17-0.51 2.68q-0.6-2.25-1.19-4.5z"/>
		<path id="Path 36" fill-rule="evenodd" class="s24" d="m625.33 1997.02c2.74-0.77 2.63-1.05 5.22-0.09q-2.61 0.04-5.22 0.09z"/>
		<text id="@" transform="translate(1142.4,2063.3)">
			<tspan x="0" y="0" class="t25">@
</tspan>
		</text>
		<path id="Path 38" fill-rule="evenodd" class="s26" d="m923.35 2269.53c12.41-0.62 12.49-0.75 13.4-0.24 4.18 2.34-31.97 74.8-35.44 93.74-1.74 9.52 9.67 17.45 47.42-14.64 24.89-21.16 19.48-24.65 33.67-56.03 4.81-10.64-4.64-5.64-19.98-6.47-5.28-0.28 2.81-15.34 4.39-18.84 2.11-4.66 15.93-2.99 23.47-3.11 9.94-0.16 10.4-30.55 21.51-32.13 36.94-5.26 38.84-12.32 49.99-26.07 3.34-4.12 20.31 1.93 20.36 1.98 3.03 3.05-19.93 50.46-19.73 53.85 0.23 4.02 23.05 2.07 26.06 2.39 3.44 0.37-2.23 12.18-5.4 19.47-2.44 5.6-27.41 0.14-31.21 3.97-1.85 1.85-25.94 61.52-28.34 68.37-10.66 30.5 44.03-3.97 47.65-14.4 24.37-70.15 114.18-89.35 143.32-63.37 5 4.46 5.35 0.19 7.87-5.66 2.2-5.1 4-2.25 9.98-1.59 14.8 1.64 52.37-2.86 54.49-1.25 4.95 3.76-44.12 91.12-32.95 100.96 10.74 9.46 43.86-26.62 43.96-26.7 3.29-2.6 13.15 9.12 13.39 10.21 0.89 4.06-62.64 70.41-112.11 52.15-20.89-7.71-15.1-31.37-21.99-23.21-10.8 12.78-48.39 35.5-80.41 23.23-34.23-13.11-24.7-40.22-31.87-34.48-13 10.38-84.76 54.77-111.42 30.76-15.8-14.23-0.83-35.79-9.86-27.67-20.71 18.6-96.3 64.04-112.93 8.36-0.14-0.46-1.71-2.7-3.9-0.25-1.69 1.9-1.72 1.69-7.25 6.13-4.46 3.59-36.23 29.15-71.42 17.77-35.32-11.42-26.12-42.27-35.64-35-44.45 34-122.58 55.33-162.74 18.19-5.27-4.89 6.07-21.4 11.51-17.89 60 38.6 100.39-80.81 35.45-75.45-11.52 0.95-3.77-15.37-3.18-16.6 3.48-7.33 26.7 0.25 45.65-19.12 33.71-34.43 4.14-64.89-20.94-52.02-11.25 5.77-43.91 95.79-69.33 146.75-37.43 75.05-96.63 54.1-115.03 41.14-16.3-11.47-16.65-14.57-7.91-31.61 2.95-5.74 4.46-1.15 9.57 3.03 28.51 23.31 39.28-5.77 70.06-76 24.26-55.38 26.26-54.62 27.45-59.69 0.45-1.93-2.65-3.03-23.16 12.57-11.88 9.03-10.82 9.87-22.28 19.35-4.06 3.35-24.68-10.19-20.07-15 77.53-80.77 227.64-81.74 243.65-24.27 11.01 39.5-39.49 56.77-45.36 58.77-9.14 3.13 11.33 5.77 20.65 17.99 23.6 30.97 3.73 56.43 7.1 58.54 1.19 0.75 25.13-13.1 28.05-21.22 24.25-67.37 112.95-87.32 142.54-61.2 4.95 4.37 5.11 0.07 7.89-5.68 2.79-5.78 5.77 0.69 51.35-2.81zm226.31 103.33c44.61-4.12 82.09-105.74 25.87-80.05-28.72 13.13-62.29 74.31-25.87 80.05zm-350.35 0.02c41.5-4.45 82.49-98.5 29.77-81.72-30.85 9.82-67.99 76.48-29.77 81.72z"/>
		<path id="Path 39" fill-rule="evenodd" class="s26" d="m1801.23 2269.55c9.83-0.11 12.27-6.57 17.46 1.15 1.29 1.9-25.5 54.4-33.76 75.89-6.56 17.06 0.31 25.6 10.65 22.72 38.06-10.59 62.12-92.96 68.01-97.64 2.25-1.78 62.81-2.49 63.16-2.27 4.84 2.99-41.44 85.42-35.39 99.3 1.79 4.11 8.57 12.18 53.02-26.1 3.59-3.09 23.73-50.56 35.23-74.11 28.79-58.97 25.05-64.91 38.13-65.1 52.22-0.73 59.98-7.32 56.72-0.01-20.08 44.98-34.62 70.55-38.02 76.51-3.38 5.95 8.34-1.52 8.96-1.91 21.34-13.6 65.62-18.82 81.62 5.86 34.22 52.81-48.4 140.52-140.69 124.25-55.82-9.85-38.14-36.32-47.26-36.95-0.39-0.03-57.58 47.14-94.51 37.17-31.87-8.6-21.96-28.36-25.94-30.13-2-0.89-3.96 2.68-18.85 12.75-38.6 26.14-68.66 21.14-82.63 7.94-14.62-13.83-0.05-35.04-12.61-25.2-62.78 49.21-128.55 46.12-116.43-3.39 2.43-9.9-4.57-1.4-8.06 0.96-9.26 6.27-65.36 49.54-141.05 35.61-134.78-24.81-76.25-192.83 61.11-221.3 132.44-27.45 130.28 80 60.98 80.94-22.11 0.3-21.39-13.92-21.42-14.07-1.02-4.84 12.52-4.46 20.53-13.37 30.72-34.18-29.79-60.89-82.68 1.87-58.87 69.86-42.51 137.47 4.89 139.44 36.6 1.52 66.65-5.81 112.83-45.61 15.13-13.04 26.7-65.28 51.38-103.57 31.48-48.85 111.05-55.01 95.92 3.22-11.39 43.83-65.86 78.19-72.92 83.64-2.42 1.87-6.02 4.65-13.14 34.29-0.54 2.23-8.43 35.09 28.12 11.89 38.97-24.73 41.19-31.99 44.8-39.61 11.88-25.1 11.4-25.15 23.3-50.11 2.6-5.46 10.28-4.15 48.54-4.95zm-81.95-33.19c1.69-5.6 2.35-5.39 2.73-11.14 1.49-22.44-17.2-4.77-34.29 38.34-5.43 13.7-14.05 31.05-5.33 22.45 23.73-23.43 26.71-27.62 36.89-49.65zm283.78 128.5c2.38 54.58 71.24-8.08 66.28-52.61-4.02-36.27-60.5-5.97-66.28 52.61z"/>
	</g>
</svg>